PathFileType	4	(X/Y/Z)	/Users/itak/Documents/Research/Walk-IL/dataset/trc/00425_00167.trc
DataRate	CameraRate	NumFrames	NumMarkers	Units	OrigDataRate	OrigDataStartFrame	OrigNumFrames
100.000000	100.000000	4	53	mm	100.000000	659	754
Frame#	Time	RPSI			LPSI			L3			STRN			T10			C7			CLAV			RBAK			LBAK			LSHO			LUPA			LAEL			LAOL			LWTS			LWPS			LFRA			LIFD			LHPS			LHTS			RSHO			RUPA			RAEL			RAOL			RWTS			RWPS			RFRA			RIFD			RHTS			RHPS			RBHD			LFHD			RFHD			LBHD			LHIP			RHIP			RASI			LASI			LKNE			LTHI			LANK			LTIP			LTOE			LMT1			LMT5			LHEE			RKNE			RTHI			RANK			RTIP			RTOE			RMT1			RMT5			RHEE			
		X1	Y1	Z1	X2	Y2	Z2	X3	Y3	Z3	X4	Y4	Z4	X5	Y5	Z5	X6	Y6	Z6	X7	Y7	Z7	X8	Y8	Z8	X9	Y9	Z9	X10	Y10	Z10	X11	Y11	Z11	X12	Y12	Z12	X13	Y13	Z13	X14	Y14	Z14	X15	Y15	Z15	X16	Y16	Z16	X17	Y17	Z17	X18	Y18	Z18	X19	Y19	Z19	X20	Y20	Z20	X21	Y21	Z21	X22	Y22	Z22	X23	Y23	Z23	X24	Y24	Z24	X25	Y25	Z25	X26	Y26	Z26	X27	Y27	Z27	X28	Y28	Z28	X29	Y29	Z29	X30	Y30	Z30	X31	Y31	Z31	X32	Y32	Z32	X33	Y33	Z33	X34	Y34	Z34	X35	Y35	Z35	X36	Y36	Z36	X37	Y37	Z37	X38	Y38	Z38	X39	Y39	Z39	X40	Y40	Z40	X41	Y41	Z41	X42	Y42	Z42	X43	Y43	Z43	X44	Y44	Z44	X45	Y45	Z45	X46	Y46	Z46	X47	Y47	Z47	X48	Y48	Z48	X49	Y49	Z49	X50	Y50	Z50	X51	Y51	Z51	X52	Y52	Z52	X53	Y53	Z53	

660	6.59	961.1937255859375	965.26025390625	931.1994018554688	1049.293579101562	964.3626708984375	820.525146484375	1012.272705078125	1055.38330078125	891.8892211914062	1234.464721679688	1243.425537109375	1041.13427734375	1003.01416015625	1178.674194335938	871.0050048828125	1052.931640625	1445.13427734375	913.9500122070312	1208.676025390625	1357.4091796875	1015.219604492188	944.4929809570312	1328.70166015625	956.7880249023438	1089.8154296875	1397.753662109375	814.6729125976562	1220.682250976562	1415.480834960938	818.9761962890625	1283.018432617188	1297.180786132812	740.7927856445312	1337.071166992188	1083.211547851562	746.7994995117188	1236.848999023438	1060.290405273438	735.0716552734375	1375.96142578125	894.5362548828125	858.37158203125	1387.38525390625	872.15380859375	788.9103393554688	1365.204223632812	998.7681884765625	765.1580200195312	1395.686401367188	728.194091796875	877.3878784179688	1398.181396484375	793.1548461914062	804.463623046875	1400.205932617188	808.1666259765625	874.0031127929688	1013.60400390625	1417.94921875	1086.073364257812	954.0830688476562	1358.77978515625	1139.201293945312	932.494873046875	1073.582763671875	1204.254638671875	906.3899536132812	1050.25830078125	1145.816040039062	1072.50830078125	896.0128784179688	1227.915161132812	992.54638671875	866.4097290039062	1248.490356445312	940.3623046875	1016.390869140625	1218.654418945312	1098.958740234375	740.3563842773438	1244.589233398438	1097.860717773438	801.0792236328125	1255.290771484375	1024.322265625	784.02099609375	1261.792236328125	1063.178588867188	1638.578369140625	1027.615112304688	1265.60595703125	1657.413940429688	989.0802612304688	1184.28125	1657.729370117188	1090.677368164062	1160.611694335938	1642.459350585938	879.4721069335938	1222.202270507812	850.5523071289062	810.4457397460938	962.3279418945312	854.817138671875	1108.577758789062	1082.921875	893.378173828125	1127.19873046875	1250.498046875	885.4422607421875	933.0548706054688	1178.37744140625	426.4344482421875	841.040283203125	1217.599731445312	580.2256469726562	841.9251708984375	1116.326904296875	28.3991641998291	809.176025390625	1172.216796875	273.9034729003906	832.552978515625	1230.08056640625	32.11417007446289	1013.607788085938	1157.573120117188	38.89700698852539	982.6677856445312	1234.388916015625	33.1844482421875	900.824951171875	1044.05810546875	27.83420944213867	806.4304809570312	993.1661987304688	454.9414978027344	1109.660766601562	981.8323364257812	719.764404296875	1131.1923828125	981.785888671875	31.92560768127441	1103.827392578125	985.136474609375	312.4299621582031	1124.533203125	1186.29345703125	35.2572135925293	1192.005859375	1153.315795898438	41.23696517944336	1126.168823242188	1076.982299804688	38.64321899414062	1200.741577148438	956.0543212890625	21.36801338195801	1027.55419921875	
661	6.600000000000001	960.6091918945312	965.3846435546875	932.558837890625	1048.215576171875	964.5149536132812	821.5651245117188	1011.604675292969	1055.690673828125	893.2005615234375	1234.325805664062	1243.427978515625	1042.180786132812	1002.32861328125	1178.975463867188	872.5645141601562	1052.535888671875	1445.35595703125	915.6407470703125	1208.42431640625	1357.476318359375	1016.559326171875	944.10986328125	1328.848388671875	958.7494506835938	1089.243530273438	1398.060913085938	816.2539672851562	1220.12841796875	1415.797729492188	820.4439697265625	1282.88232421875	1297.552368164062	742.5811767578125	1338.045532226562	1083.9208984375	749.7376098632812	1238.03662109375	1060.191040039062	737.8055419921875	1378.197387695312	897.21875	863.886962890625	1389.968383789062	873.8759155273438	794.7908935546875	1366.79736328125	999.9403686523438	769.2311401367188	1399.58837890625	731.459228515625	885.579833984375	1401.578857421875	795.2741088867188	811.6173095703125	1403.316528320312	811.4186401367188	880.896484375	1013.586791992188	1417.978393554688	1087.789672851562	954.3895874023438	1358.857788085938	1141.281494140625	933.5964965820312	1073.689086914062	1206.797485351562	907.3485717773438	1050.152709960938	1148.499267578125	1074.439575195312	896.8258666992188	1230.087036132812	994.7630615234375	866.9445190429688	1251.183471679688	941.7865600585938	1016.624267578125	1221.281127929688	1101.764038085938	741.3370971679688	1246.994140625	1100.423828125	802.0675048828125	1257.593994140625	1027.043823242188	784.8449096679688	1264.63720703125	1062.836791992188	1638.596435546875	1029.314453125	1265.283813476562	1657.518920898438	990.7125244140625	1184.034545898438	1657.763549804688	1092.39208984375	1160.187866210938	1642.606323242188	881.1932983398438	1221.114990234375	850.8229370117188	810.747314453125	962.4334106445312	854.6939086914062	1109.813842773438	1083.223754882812	893.2470092773438	1127.946533203125	1250.031372070312	885.6515502929688	933.14990234375	1178.19775390625	426.578125	841.5772094726562	1217.17626953125	580.3797607421875	842.0919189453125	1116.285522460938	28.54556655883789	809.3525390625	1171.982421875	273.940673828125	832.9636840820312	1230.263305664062	32.1111946105957	1013.561584472656	1157.730346679688	38.87248611450195	982.7230834960938	1234.43310546875	33.19146728515625	900.788818359375	1043.950805664062	27.97944450378418	806.7363891601562	993.1991577148438	454.76416015625	1110.012084960938	982.0829467773438	719.5870361328125	1132.036499023438	981.7830200195312	31.93108558654785	1103.768798828125	985.1923217773438	312.3492736816406	1124.737670898438	1186.321411132812	35.25016784667969	1191.996826171875	1153.328002929688	41.21674346923828	1126.171020507812	1076.971923828125	38.64009475708008	1200.751098632812	956.0661010742188	21.41235160827637	1027.491088867188	
662	6.61	960.068359375	965.4865112304688	933.8745727539062	1047.167846679688	964.648193359375	822.5904541015625	1010.970520019531	1055.98388671875	894.4861450195312	1234.182983398438	1243.432373046875	1043.204223632812	1001.660949707031	1179.274536132812	874.1015625	1052.129272460938	1445.570556640625	917.3154907226562	1208.173706054688	1357.546508789062	1017.875854492188	943.7250366210938	1328.979736328125	960.6959228515625	1088.662719726562	1398.360961914062	817.8223876953125	1219.55810546875	1416.116821289062	821.8798828125	1282.713623046875	1297.916381835938	744.3338623046875	1338.94482421875	1084.63134765625	752.649169921875	1239.143920898438	1060.107299804688	740.4990234375	1380.209228515625	899.8745727539062	869.2854614257812	1392.398315429688	875.6204833984375	800.5612182617188	1368.279174804688	1001.120666503906	773.2509765625	1403.2060546875	734.7373657226562	893.5618286132812	1404.776611328125	797.427734375	818.614501953125	1406.15234375	814.6551513671875	887.6324462890625	1013.578918457031	1417.992919921875	1089.501953125	954.7141723632812	1358.923706054688	1143.353881835938	934.7064208984375	1073.7841796875	1209.30126953125	908.2953491210938	1050.073608398438	1151.173461914062	1076.212890625	897.4885864257812	1232.146484375	996.7951049804688	867.3981323242188	1253.7841796875	943.1455078125	1016.8330078125	1223.85693359375	1104.233032226562	742.1282348632812	1249.221801757812	1102.75537109375	802.8567504882812	1259.757690429688	1029.482543945312	785.5557250976562	1267.360107421875	1062.52587890625	1638.63525390625	1031.002197265625	1264.986328125	1657.601684570312	992.3084106445312	1183.834716796875	1657.796142578125	1094.090209960938	1159.782104492188	1642.763549804688	882.8787231445312	1220.096069335938	851.0950317382812	811.0357666015625	962.6641845703125	854.553466796875	1110.974609375	1083.523071289062	893.1073608398438	1128.667358398438	1249.635375976562	885.8714599609375	933.2572631835938	1178.091186523438	426.7265930175781	842.1276245117188	1216.833984375	580.5401611328125	842.2711181640625	1116.249145507812	28.6964225769043	809.5498046875	1171.791870117188	273.9583129882812	833.3944702148438	1230.462890625	32.1087760925293	1013.523132324219	1157.885864257812	38.82981109619141	982.77587890625	1234.470581054688	33.18751525878906	900.7533569335938	1043.842651367188	28.1406192779541	807.0448608398438	993.2510375976562	454.5653686523438	1110.348022460938	982.35205078125	719.3876953125	1132.866088867188	981.7862548828125	31.94125747680664	1103.705322265625	985.2503051757812	312.2651062011719	1124.945190429688	1186.35302734375	35.24207305908203	1191.983642578125	1153.344482421875	41.1905403137207	1126.169555664062	1076.956665039062	38.63093566894531	1200.766357421875	956.080078125	21.45380592346191	1027.428344726562	
663	6.62	959.5780029296875	965.574462890625	935.1482543945312	1046.167358398438	964.7872924804688	823.582275390625	1010.375732421875	1056.262084960938	895.7413940429688	1234.035400390625	1243.440185546875	1044.207641601562	1001.015869140625	1179.569580078125	875.6174926757812	1051.707153320312	1445.7744140625	918.975830078125	1207.927490234375	1357.620361328125	1019.1708984375	943.341064453125	1329.09765625	962.6245727539062	1088.072631835938	1398.657348632812	819.3753662109375	1218.971557617188	1416.440063476562	823.287109375	1282.504760742188	1298.278930664062	746.0448608398438	1339.764404296875	1085.344116210938	755.5274047851562	1240.172241210938	1060.054443359375	743.1358642578125	1381.9921875	902.4911499023438	874.5519409179688	1394.6669921875	877.3768310546875	806.20361328125	1369.641357421875	1002.306091308594	777.206298828125	1406.527709960938	738.0072021484375	901.3109741210938	1407.755859375	799.6022338867188	825.4322509765625	1408.710571289062	817.8600463867188	894.1929321289062	1013.578125	1417.999877929688	1091.208984375	955.0432739257812	1358.971435546875	1145.40185546875	935.812744140625	1073.871704101562	1211.755981445312	909.1993408203125	1050.024047851562	1153.826171875	1077.8291015625	898.0049438476562	1234.096069335938	998.6337280273438	867.76220703125	1256.275268554688	944.4312744140625	1017.009399414062	1226.369262695312	1106.370727539062	742.7381591796875	1251.285034179688	1104.854736328125	803.4554443359375	1261.79248046875	1031.633056640625	786.1370239257812	1269.93994140625	1062.24560546875	1638.701049804688	1032.679931640625	1264.709106445312	1657.666259765625	993.8677978515625	1183.673706054688	1657.828979492188	1095.767700195312	1159.394897460938	1642.93603515625	884.5245361328125	1219.141235351562	851.359130859375	811.3081665039062	962.9935302734375	854.4031982421875	1112.058471679688	1083.815185546875	892.9553833007812	1129.362060546875	1249.293212890625	886.0987548828125	933.3727416992188	1178.047607421875	426.876953125	842.685302734375	1216.560913085938	580.712646484375	842.4620971679688	1116.209838867188	28.84015083312988	809.760009765625	1171.652954101562	273.9656372070312	833.8326416015625	1230.6826171875	32.11117172241211	1013.49267578125	1158.040893554688	38.76724243164062	982.8246459960938	1234.501831054688	33.17209625244141	900.7153930664062	1043.728393554688	28.31625366210938	807.3519287109375	993.3197021484375	454.3600769042969	1110.671142578125	982.637939453125	719.1820678710938	1133.683227539062	981.78955078125	31.94849586486816	1103.635864257812	985.309326171875	312.1781921386719	1125.156616210938	1186.386474609375	35.2342529296875	1191.967163085938	1153.363525390625	41.15966415405273	1126.1650390625	1076.938110351562	38.6180305480957	1200.784790039062	956.09423828125	21.48920631408691	1027.367919921875	
